<?xml version="1.0" encoding="UTF-8"?>
<svg xmlns="http://www.w3.org/2000/svg" width="512" height="512" viewBox="0 0 512 512">
  <style>
    /* Make it white in both themes */
    g {
      fill: #ffffff;
      stroke-width: 8px; /* Increased stroke width */
      stroke: #ffffff; /* Add stroke color */
    }
  </style>

  <g transform="translate(0.000000,512.000000) scale(0.100000,-0.100000)" stroke="none">
    <path d="M1752 4074 c-33 -23 -45 -60 -31 -101 6 -18 19 -38 30 -44 19 -10 20
-19 15 -252 -3 -133 -8 -303 -11 -377 -5 -127 -4 -138 17 -180 26 -52 75 -88
129 -96 33 -6 41 -13 59 -50 26 -53 87 -109 149 -137 35 -16 72 -22 154 -25
l107 -4 0 -49 0 -49 -37 0 c-152 -2 -295 -11 -319 -20 -47 -18 -93 -58 -114
-101 -11 -21 -25 -39 -31 -39 -6 0 -41 -20 -79 -44 -44 -29 -82 -46 -107 -48
-32 -2 -39 -7 -41 -28 -3 -16 -43 -63 -112 -130 -114 -111 -192 -219 -231
-318 -19 -46 -23 -77 -23 -167 -1 -99 2 -116 26 -168 38 -81 116 -160 201
-202 38 -19 79 -35 91 -35 41 0 45 -12 48 -120 l3 -105 454 -3 c357 -2 456 0
463 10 4 7 8 76 8 153 l0 140 19 -31 c42 -70 129 -96 372 -115 250 -20 435 4
587 76 341 161 361 609 41 959 -80 88 -216 185 -261 187 -7 0 -26 21 -43 47
-51 78 -88 90 -287 94 l-168 3 0 51 0 51 108 5 c79 3 119 10 153 25 62 28 123
84 149 139 16 32 28 44 43 44 39 1 104 37 133 76 28 36 29 41 32 171 3 103 0
144 -13 182 -13 39 -15 89 -14 255 1 205 1 207 24 222 80 52 23 183 -68 160
-70 -17 -89 -95 -37 -148 l30 -30 0 -190 c0 -177 -1 -190 -17 -183 -10 4 -32
9 -50 12 -27 5 -33 11 -42 47 -15 60 -63 130 -114 165 -83 57 -120 61 -547 61
-427 0 -464 -4 -547 -61 -51 -35 -99 -105 -114 -165 -9 -36 -15 -42 -42 -47
-18 -3 -40 -8 -49 -12 -17 -7 -18 6 -18 183 l0 190 30 30 c40 41 40 83 1 123
-33 33 -74 38 -109 13z m72 -50 c27 -26 12 -58 -25 -52 -27 3 -37 32 -19 53
16 19 25 19 44 -1z m1599 -6 c15 -23 1 -48 -28 -48 -14 0 -25 2 -25 4 0 2 -3
11 -6 19 -6 16 23 50 39 44 6 -2 15 -10 20 -19z m-346 -293 c28 -15 63 -41 78
-60 50 -67 55 -98 55 -359 0 -232 -1 -243 -24 -291 -25 -54 -70 -98 -126 -124
-30 -14 -92 -16 -465 -16 -422 0 -431 0 -470 22 -22 12 -54 36 -72 55 -59 62
-63 82 -63 354 0 158 4 261 12 285 15 52 68 112 120 138 42 20 55 21 474 21
l430 0 51 -25z m-1154 -439 c2 -185 1 -196 -16 -196 -32 0 -76 39 -88 78 -6
22 -9 84 -7 144 2 89 6 110 23 128 18 21 76 52 83 45 2 -1 4 -91 5 -199z
m1441 150 c17 -23 22 -45 24 -129 2 -57 -1 -117 -7 -138 -12 -41 -56 -79 -90
-79 -21 0 -21 4 -21 193 0 107 3 196 6 200 11 11 67 -18 88 -47z m-594 -676
l0 -50 -170 0 -170 0 0 50 0 50 170 0 170 0 0 -50z m415 -145 c71 -41 75 -59
75 -327 -1 -167 -4 -237 -13 -249 -46 -61 -201 -82 -429 -58 -99 10 -111 10
-146 -8 -29 -14 -45 -16 -70 -9 l-32 9 0 68 0 69 150 0 c194 0 182 -15 178
225 -3 161 -5 178 -22 191 -16 11 -77 14 -320 14 -265 0 -302 -2 -318 -17 -10
-9 -18 -27 -18 -40 l0 -23 -145 0 c-144 0 -145 0 -145 23 0 38 43 110 79 134
l34 23 550 0 550 0 42 -25z m-340 -290 l0 -170 -137 -3 -138 -3 0 40 c0 36 -9
49 -107 155 l-107 116 -48 0 c-46 0 -62 13 -41 33 4 4 135 6 292 5 l286 -3 0
-170z m540 138 c37 -23 45 -33 45 -58 -1 -53 -63 -165 -92 -165 -4 0 -8 56 -8
125 0 69 2 125 5 125 2 0 25 -12 50 -27z m-1515 7 c0 -5 -5 -10 -11 -10 -5 0
-7 5 -4 10 3 6 8 10 11 10 2 0 4 -4 4 -10z m440 -168 c0 -63 4 -102 12 -110 8
-8 45 -12 100 -12 l88 0 0 -105 c0 -99 -1 -105 -20 -105 -53 0 -131 -72 -149
-137 -38 -137 24 -287 133 -323 l36 -12 0 -134 0 -134 -410 0 -410 0 0 145 0
145 29 0 c46 0 113 28 148 62 72 70 83 197 26 300 -23 42 -40 59 -83 81 -29
15 -69 27 -87 27 l-33 0 0 205 0 205 310 0 310 0 0 -98z m1230 31 c92 -104
160 -220 195 -332 l8 -25 -34 29 c-83 70 -222 100 -326 72 l-53 -14 0 61 c1
57 3 62 32 81 46 29 97 100 104 146 4 21 10 39 14 39 5 0 32 -26 60 -57z
m-1110 -38 l54 -55 -57 0 -57 0 0 55 c0 30 1 55 3 55 1 0 27 -25 57 -55z
m-800 -89 l0 -94 -41 0 c-52 -1 -96 -11 -132 -29 -16 -8 -31 -12 -33 -10 -10
10 183 227 202 227 2 0 4 -42 4 -94z m0 -175 c0 -36 -4 -41 -37 -58 -25 -12
-47 -34 -63 -63 -22 -39 -25 -57 -24 -140 0 -76 5 -105 22 -145 26 -57 48 -84
80 -96 15 -6 22 -17 22 -34 0 -30 -4 -31 -74 -4 -77 28 -148 96 -188 177 -29
59 -33 76 -33 147 1 95 20 143 77 188 44 35 128 66 181 67 37 0 37 -1 37 -39z
m1985 -21 c27 -13 69 -44 93 -68 l44 -44 -4 -82 c-7 -138 -68 -244 -182 -318
-45 -29 -165 -78 -191 -78 -1 0 9 28 24 63 22 53 26 77 26 162 0 92 -3 106
-32 167 -17 37 -52 87 -76 112 l-45 44 22 20 c61 57 226 68 321 22z m-327
-125 c72 -79 95 -145 90 -260 -3 -78 -8 -98 -37 -151 -26 -50 -38 -63 -63 -68
-40 -8 -322 -8 -370 0 l-37 7 24 41 c37 63 58 168 51 253 -5 62 -16 103 -51
186 -7 16 2 17 106 18 63 0 134 6 159 13 70 21 75 19 128 -39z m-1491 19 c66
-48 94 -171 54 -244 -40 -74 -183 -109 -236 -56 -67 67 -63 286 7 316 39 16
144 7 175 -16z m806 -6 c34 -13 47 -43 47 -108 0 -49 -17 -190 -26 -222 -10
-35 -126 -16 -178 30 -56 50 -73 173 -34 243 39 69 107 89 191 57z m241 -15
c68 -106 75 -264 18 -386 -17 -37 -38 -70 -46 -73 -25 -10 -115 16 -144 41
-26 22 -26 24 -9 43 37 41 61 334 33 395 -7 15 -1 17 58 17 65 0 66 0 90 -37z"/>
    <path d="M2250 3463 c-50 -19 -74 -76 -54 -128 8 -19 55 -45 84 -45 33 0 80
53 80 89 0 53 -64 102 -110 84z"/>
    <path d="M2844 3460 c-30 -12 -54 -49 -54 -83 0 -34 48 -87 80 -87 51 0 89 38
89 90 0 66 -55 104 -115 80z"/>
    <path d="M2403 3173 c-20 -8 -15 -38 10 -60 45 -42 89 -57 163 -58 61 0 77 4
119 30 62 39 75 59 53 82 -17 16 -19 16 -40 -4 -72 -65 -177 -71 -247 -15 -22
18 -41 32 -43 31 -2 0 -9 -3 -15 -6z"/>
    <path d="M3045 2456 c-51 -22 -70 -52 -70 -108 0 -43 4 -53 33 -79 71 -64 178
-23 189 71 6 53 -20 94 -73 116 -40 17 -41 17 -79 0z m90 -56 c26 -29 24 -79
-4 -102 -32 -25 -67 -23 -96 7 -30 30 -31 54 -4 89 26 33 77 36 104 6z"/>
  </g>
</svg>
